<svg width="24" height="24" viewBox="0 0 24 24" fill="none" xmlns="http://www.w3.org/2000/svg">
<path d="M18 22H6C4.89543 22 4 21.1046 4 20V4C4 2.89543 4.89543 2 6 2H13C13.009 1.99884 13.018 1.99884 13.027 2H13.033C13.0424 2.00296 13.0522 2.00497 13.062 2.006C13.1502 2.01165 13.2373 2.0288 13.321 2.057H13.336H13.351H13.363C13.3815 2.06993 13.3988 2.08431 13.415 2.1C13.5239 2.14843 13.6232 2.21619 13.708 2.3L19.708 8.3C19.7918 8.38479 19.8596 8.48406 19.908 8.593C19.917 8.615 19.924 8.636 19.931 8.659L19.941 8.687C19.9689 8.77039 19.9854 8.85718 19.99 8.945C19.9909 8.95496 19.9932 8.96474 19.997 8.974V8.98C19.9986 8.98656 19.9996 8.99325 20 9V20C20 20.5304 19.7893 21.0391 19.4142 21.4142C19.0391 21.7893 18.5304 22 18 22ZM13 4V9H18L13 4Z" fill="black"/>
</svg>
